<svg width="120" height="32" viewBox="0 0 120 32" fill="none" xmlns="http://www.w3.org/2000/svg">
  <!-- Icon mark (from clickup-wordmark-dark.svg, scaled to 32x32) -->
  <g transform="scale(0.5)">
    <path fill-rule="evenodd" clip-rule="evenodd" d="M0.411091 50.172C-0.214959 49.4087 -0.078008 48.2852 0.691787 47.6671L7.98408 41.8121C8.62017 41.3013 9.55015 41.4167 10.0688 42.0463C15.022 48.0597 20.278 50.8436 26.0957 50.8436C31.8732 50.8436 36.9859 48.0991 41.7222 42.1525C42.2305 41.5142 43.1582 41.3822 43.8035 41.8816L51.1954 47.6021C51.976 48.2062 52.1332 49.3269 51.5203 50.1005C44.5175 58.9399 35.9435 63.5972 26.0957 63.5972C16.2766 63.5972 7.62609 58.969 0.411091 50.172Z" fill="url(#self_paint0)"/>
    <path fill-rule="evenodd" clip-rule="evenodd" d="M26.4487 17.1675C26.1739 16.9241 25.7606 16.924 25.4855 17.1672L9.62895 31.1882C9.02279 31.7242 8.09562 31.662 7.56651 31.0498L1.38195 23.8944C0.860213 23.2907 0.922623 22.3793 1.52177 21.8525L25.0072 1.19963C25.5562 0.716868 26.3783 0.716976 26.9271 1.19988L50.4178 21.8683C51.0173 22.3958 51.079 23.3081 50.556 23.9115L44.3565 31.0634C43.8267 31.6745 42.9001 31.7357 42.2946 31.1995L26.4487 17.1675Z" fill="url(#self_paint1)"/>
  </g>
  <!-- "Self" text -->
  <text x="36" y="22" font-family="-apple-system,BlinkMacSystemFont,'Segoe UI',sans-serif" font-size="18" font-weight="700" fill="white">Self</text>
  <defs>
    <linearGradient id="self_paint0" x1="-0.692871" y1="32.1384" x2="52.5993" y2="32.1384" gradientUnits="userSpaceOnUse">
      <stop offset="0.225962" stop-color="#6647F0"/>
      <stop offset="0.793269" stop-color="#0091FF"/>
    </linearGradient>
    <linearGradient id="self_paint1" x1="-0.692871" y1="31.621" x2="52.5993" y2="31.621" gradientUnits="userSpaceOnUse">
      <stop stop-color="#FF02F0"/>
      <stop offset="0.778846" stop-color="#F76808"/>
      <stop offset="1" stop-color="#F76808"/>
    </linearGradient>
  </defs>
</svg>
